# Blender 3.3.1
# www.blender.org
mtllib Tentacles.mtl
o Cube
v -2.584941 -88.801704 0.879820
v -1.544782 -88.856728 3.301985
v -4.318510 -89.246964 2.434101
v -2.881361 -77.113846 2.227712
v -1.304839 -76.336647 7.231652
v -7.008831 -77.133354 5.558261
v -3.718502 -73.426842 2.302145
v -3.372714 -71.813576 6.338037
v -6.839200 -71.844627 4.967008
v -4.448631 -55.831463 0.820365
v -3.088627 -55.869991 2.056349
v -5.097464 -56.151577 2.510129
v -5.528522 -44.254505 3.223640
v -5.105517 -44.266491 3.608071
v -5.730330 -44.354069 3.749211
v -1.041873 -89.641243 -0.512471
v -3.650874 -89.696259 -0.889209
v -1.463047 -90.086494 -2.802374
v -2.036979 -77.953384 -1.468735
v -7.128223 -77.176186 -2.735260
v -2.724089 -77.972893 -6.727674
v -1.663604 -74.266380 -2.221685
v -5.286802 -72.653114 -4.032883
v -2.308255 -72.684166 -6.274424
v -0.018573 -45.702923 -2.071230
v -1.782638 -45.741451 -1.556112
v -1.121397 -46.023037 -3.506523
v -1.505094 -13.605034 -4.246582
v -2.053775 -13.617012 -4.086364
v -1.848108 -13.704597 -4.693005
v 3.255937 -90.586060 3.261199
v 1.685843 -90.641075 1.143743
v 4.584892 -91.031311 1.349414
v 3.233923 -78.898193 1.881274
v 0.547223 -78.121002 -2.624998
v 6.483282 -78.917709 -2.310411
v 4.031410 -75.211197 1.616023
v 2.765325 -73.597923 -2.231707
v 6.454397 -73.628975 -1.695985
v 6.117622 -39.662144 6.858560
v 4.509499 -39.700665 5.969060
v 6.359802 -39.982250 5.064783
v -1.327370 -24.436333 2.033591
v -1.827547 -24.448311 1.756928
v -1.252043 -24.535896 1.475669
vn -0.2477 -0.2932 0.9234
vn -0.3662 0.1150 0.9234
vn -0.6756 0.0675 -0.7342
vn 0.9472 0.0794 -0.3107
vn -0.3630 0.1833 0.9136
vn -0.6226 -0.1258 -0.7723
vn 0.9023 0.3682 -0.2245
vn 0.2314 -0.0893 0.9688
vn -0.9268 -0.0695 -0.3690
vn 0.6548 -0.2069 -0.7269
vn -0.1049 0.9837 0.1461
vn -0.9327 -0.0122 -0.3604
vn 0.6607 0.2112 -0.7204
vn -0.6584 -0.2932 -0.6932
vn -0.5966 0.1150 -0.7943
vn 0.9788 0.0675 -0.1932
vn -0.2292 0.0794 0.9701
vn -0.5970 0.1091 -0.7948
vn 0.9838 -0.1258 -0.1281
vn -0.2794 0.3682 0.8868
vn -0.9480 -0.0329 -0.3166
vn 0.9825 -0.0556 -0.1780
vn 0.2806 -0.1241 0.9518
vn -0.0699 0.9837 -0.1657
vn 0.7934 -0.0045 -0.6086
vn 0.2779 0.0778 0.9575
vn 0.0283 -0.2932 -0.9556
vn 0.1437 0.1150 -0.9829
vn 0.8265 0.0675 0.5588
vn -0.8501 0.0794 0.5206
vn 0.1426 0.1954 -0.9703
vn 0.7838 -0.1258 0.6082
vn -0.8263 0.3682 0.4262
vn -0.4504 -0.4066 -0.7949
vn 0.9859 -0.0796 0.1473
vn -0.9526 -0.0243 0.3032
vn 0.0684 0.9837 -0.1663
vn 0.8925 0.4492 0.0403
vn -0.4844 0.0401 0.8739
vn -0.2325 -0.2872 0.9292
vn -0.2884 0.0570 0.9558
vn -0.6270 0.0611 -0.7766
vn 0.9173 0.0685 -0.3923
vn 0.1795 0.2522 0.9509
vn -0.6661 -0.0617 -0.7433
vn 0.9212 0.2157 -0.3237
vn -0.6615 -0.0438 -0.7487
vn 0.9946 0.0330 -0.0984
vn -0.6713 -0.2872 -0.6832
vn -0.6649 0.0570 -0.7448
vn 0.9897 0.0611 -0.1295
vn -0.1440 0.0685 0.9872
vn -0.9292 0.1520 -0.3370
vn 0.9817 -0.0617 -0.1803
vn -0.2046 0.2157 0.9548
vn 0.7896 0.0285 -0.6130
vn -0.4397 0.0206 0.8979
vn 0.0122 -0.2872 -0.9578
vn 0.0605 0.0570 -0.9965
vn 0.7890 0.0611 0.6113
vn -0.8022 0.0685 0.5931
vn -0.3977 0.2350 -0.8869
vn 0.8194 -0.0617 0.5699
vn -0.8219 0.2157 0.5272
vn 0.8263 -0.1087 0.5526
vn -0.4797 -0.1004 0.8717
vt 0.818182 0.472382
vt 0.272728 0.472382
vt 0.136365 0.393651
vt 0.227273 0.393651
vt 0.045455 0.393651
vt 0.863636 0.393651
vt 0.818182 0.472382
vt 0.272728 0.472382
vt 0.136365 0.393651
vt 0.227273 0.393651
vt 0.045455 0.393651
vt 0.863636 0.393651
vt 0.818182 0.472382
vt 0.272728 0.472382
vt 0.136365 0.393651
vt 0.227273 0.393651
vt 0.045455 0.393651
vt 0.863636 0.393651
vt 0.818182 0.472382
vt 0.272728 0.472382
vt 0.227273 0.393651
vt 0.136365 0.393651
vt 0.045455 0.393651
vt 0.863636 0.393651
vt 0.090910 0.472382
vt 0.818182 0.472382
vt 0.272728 0.472382
vt 0.136365 0.393651
vt 0.227273 0.393651
vt 0.045455 0.393651
vt 0.863636 0.393651
vt 0.818182 0.472382
vt 0.272728 0.472382
vt 0.136365 0.393651
vt 0.227273 0.393651
vt 0.045455 0.393651
vt 0.863636 0.393651
vt 0.818182 0.472382
vt 0.272728 0.472382
vt 0.136365 0.393651
vt 0.227273 0.393651
vt 0.045455 0.393651
vt 0.863636 0.393651
vt 0.818182 0.472382
vt 0.272728 0.472382
vt 0.136365 0.393651
vt 0.227273 0.393651
vt 0.045455 0.393651
vt 0.863636 0.393651
vt 0.818182 0.472382
vt 0.272728 0.472382
vt 0.227273 0.393651
vt 0.136365 0.393651
vt 0.045455 0.393651
vt 0.863636 0.393651
vt 0.090910 0.472382
vt 0.818182 0.472382
vt 0.272728 0.472382
vt 0.136365 0.393651
vt 0.227273 0.393651
vt 0.045455 0.393651
vt 0.863636 0.393651
vt 0.818182 0.472382
vt 0.272728 0.472382
vt 0.136365 0.393651
vt 0.227273 0.393651
vt 0.045455 0.393651
vt 0.863636 0.393651
vt 0.818182 0.472382
vt 0.272728 0.472382
vt 0.136365 0.393651
vt 0.227273 0.393651
vt 0.045455 0.393651
vt 0.863636 0.393651
vt 0.818182 0.472382
vt 0.272728 0.472382
vt 0.227273 0.393651
vt 0.136365 0.393651
vt 0.045455 0.393651
vt 0.863636 0.393651
vt 0.818182 0.472382
vt 0.272728 0.472382
vt 0.136365 0.393651
vt 0.227273 0.393651
vt 0.045455 0.393651
vt 0.863636 0.393651
vt 0.090910 0.472382
vt 0.818182 0.472382
vt 0.272728 0.472382
vt 0.227273 0.393651
vt 0.136365 0.393651
vt 0.045455 0.393651
vt 0.863636 0.393651
s 0
usemtl Material
f 2/3/1 6/11/1 3/5/1
f 6/11/2 8/15/2 9/17/2
f 3/6/3 4/7/3 1/1/3
f 2/4/4 4/8/4 5/10/4
f 8/15/5 12/23/5 9/17/5
f 6/12/6 7/13/6 4/7/6
f 5/10/7 7/14/7 8/16/7
f 11/22/8 15/30/8 12/23/8
f 7/13/9 12/24/9 10/19/9
f 8/16/10 10/20/10 11/21/10
f 15/30/11 14/28/11 13/25/11
f 10/19/12 15/31/12 13/26/12
f 10/20/13 14/29/13 11/21/13
f 17/34/14 21/42/14 18/36/14
f 21/42/15 23/46/15 24/48/15
f 18/37/16 19/38/16 16/32/16
f 17/35/17 19/39/17 20/41/17
f 23/46/18 27/54/18 24/48/18
f 21/43/19 22/44/19 19/38/19
f 20/41/20 22/45/20 23/47/20
f 26/53/21 30/61/21 27/54/21
f 24/49/22 25/50/22 22/44/22
f 23/47/23 25/51/23 26/52/23
f 30/61/24 29/59/24 28/56/24
f 25/50/25 30/62/25 28/57/25
f 25/51/26 29/60/26 26/52/26
f 32/65/27 36/73/27 33/67/27
f 36/73/28 38/78/28 39/79/28
f 33/68/29 34/69/29 31/63/29
f 32/66/30 34/70/30 35/72/30
f 38/78/31 42/85/31 39/79/31
f 36/74/32 37/75/32 34/69/32
f 35/72/33 37/76/33 38/77/33
f 41/83/34 45/92/34 42/85/34
f 37/75/35 42/86/35 40/81/35
f 37/76/36 41/84/36 38/77/36
f 45/92/37 44/91/37 43/87/37
f 42/86/38 43/88/38 40/81/38
f 41/84/39 43/89/39 44/90/39
f 2/3/40 5/9/40 6/11/40
f 6/11/41 5/9/41 8/15/41
f 3/6/42 6/12/42 4/7/42
f 2/4/43 1/2/43 4/8/43
f 8/15/44 11/22/44 12/23/44
f 6/12/45 9/18/45 7/13/45
f 5/10/46 4/8/46 7/14/46
f 11/22/8 14/28/8 15/30/8
f 7/13/47 9/18/47 12/24/47
f 8/16/48 7/14/48 10/20/48
f 10/19/12 12/24/12 15/31/12
f 10/20/13 13/27/13 14/29/13
f 17/34/49 20/40/49 21/42/49
f 21/42/50 20/40/50 23/46/50
f 18/37/51 21/43/51 19/38/51
f 17/35/52 16/33/52 19/39/52
f 23/46/53 26/53/53 27/54/53
f 21/43/54 24/49/54 22/44/54
f 20/41/55 19/39/55 22/45/55
f 26/53/21 29/59/21 30/61/21
f 24/49/56 27/55/56 25/50/56
f 23/47/57 22/45/57 25/51/57
f 25/50/25 27/55/25 30/62/25
f 25/51/26 28/58/26 29/60/26
f 32/65/58 35/71/58 36/73/58
f 36/73/59 35/71/59 38/78/59
f 33/68/60 36/74/60 34/69/60
f 32/66/61 31/64/61 34/70/61
f 38/78/62 41/83/62 42/85/62
f 36/74/63 39/80/63 37/75/63
f 35/72/64 34/70/64 37/76/64
f 41/83/34 44/91/34 45/92/34
f 37/75/65 39/80/65 42/86/65
f 37/76/66 40/82/66 41/84/66
f 42/86/38 45/93/38 43/88/38
f 41/84/39 40/82/39 43/89/39
