# Blender 3.3.1
# www.blender.org
o Cube
v 0.648972 0.872650 1.648972
v -0.648972 0.872650 1.648972
v -1.000000 0.001037 -0.687906
v 0.000000 0.201979 -2.000000
v 0.000000 0.872650 1.798660
v 0.798660 0.872650 -0.642772
v 0.000000 0.001037 2.000000
v -1.000000 0.872650 -0.687906
v 0.000000 0.872650 -1.798660
v 1.000000 0.001037 -0.687906
v 0.000000 0.436844 -2.000000
v 1.000000 0.436844 -0.687906
v 0.000000 0.001037 -0.687906
v -1.000000 0.436844 -0.687906
v 0.000000 0.436844 2.000000
v 0.499283 0.872650 1.798660
v 0.798660 0.872650 1.499283
v 1.000000 0.001037 1.582681
v 0.582681 0.001037 2.000000
v -0.798660 0.872650 1.499283
v -0.499283 0.872650 1.798660
v -0.582681 0.001037 2.000000
v -1.000000 0.001037 1.582681
v -1.000000 0.436844 1.582681
v -0.582681 0.436844 2.000000
v 1.000000 0.436844 1.582681
v 0.582681 0.436844 2.000000
v 0.308368 0.872650 -1.681409
v 0.123359 0.872650 -1.798660
v 0.181787 0.201979 -2.000000
v 0.465499 0.174442 -1.820194
v -0.123359 0.872650 -1.798660
v -0.308368 0.872650 -1.681409
v -0.465499 0.174442 -1.820194
v -0.181787 0.201979 -2.000000
v 0.181787 0.436844 -2.000000
v 0.465499 0.436844 -1.820194
v -0.465499 0.436844 -1.820194
v -0.181787 0.436844 -2.000000
v 0.798660 0.872650 0.447388
v 0.291341 0.872650 1.798660
v -0.798660 0.872650 0.447388
v -0.291341 0.872650 1.798660
v 0.215864 0.872650 -1.740034
v -0.215864 0.872650 -1.740034
v 0.550676 0.872650 -1.168102
v 0.090894 0.872650 -1.798660
v -0.090894 0.872650 -1.798660
v -0.550676 0.872650 -1.168102
v 1.000000 0.872650 1.582681
v 1.000000 0.872650 0.447388
v 1.000000 0.872650 -0.687906
v 0.732749 0.872650 -1.254050
v 0.791341 0.872650 1.791340
v 0.000000 0.872650 2.000000
v -0.291341 0.872650 2.000000
v -0.465499 0.872650 -1.820194
v -0.732749 0.872650 -1.254050
v -0.323643 0.872650 -1.910097
v -0.582681 0.872650 2.000000
v -0.791341 0.872650 1.791340
v 0.181787 0.872650 -2.000000
v 0.323643 0.872650 -1.910097
v 0.000000 0.872650 -2.000000
v -0.090894 0.872650 -2.000000
v -1.000000 0.872650 1.582681
v -1.000000 0.872650 0.447388
v 0.090894 0.872650 -2.000000
v 0.291341 0.872650 2.000000
v 0.582681 0.872650 2.000000
v -0.798660 0.872650 -0.642772
v 0.465499 0.872650 -1.820194
v -0.181787 0.872650 -2.000000
v -0.798660 0.259926 -0.642772
v -0.500000 0.259926 -0.687906
v -0.000000 0.259926 -1.798660
v -0.000000 0.259926 -1.343953
v -0.000000 0.259926 -0.687906
v 0.500000 0.259926 -0.687906
v -0.000000 0.259926 0.656047
v -0.000000 0.259926 1.798660
v 0.798660 0.259926 -0.642772
v 0.798660 0.259926 1.499283
v 0.798660 0.259926 0.447388
v 0.550676 0.259926 -1.168102
v 0.648972 0.259926 1.648972
v -0.291341 0.259926 1.798660
v -0.308368 0.259926 -1.681409
v -0.550676 0.259926 -1.168102
v -0.215864 0.259926 -1.740034
v -0.499283 0.259926 1.798660
v -0.648972 0.259926 1.648972
v 0.123359 0.259926 -1.798660
v 0.215864 0.259926 -1.740034
v -0.090894 0.259926 -1.798660
v -0.798660 0.259926 1.499283
v -0.798660 0.259926 0.447388
v 0.090894 0.259926 -1.798660
v 0.291341 0.259926 1.798660
v 0.499283 0.259926 1.798660
v 0.308368 0.259926 -1.681409
v -0.123359 0.259926 -1.798660
v -0.050000 -0.406409 0.585095
v -0.050000 -0.006409 0.585095
v -0.050000 -0.406409 -0.214401
v -0.050000 -0.006409 -0.585095
v 0.050000 -0.406409 0.585095
v 0.050000 -0.006409 0.585095
v 0.050000 -0.406409 -0.214401
v 0.050000 -0.006409 -0.585095
vn -1.0000 -0.0000 -0.0000
vn 1.0000 -0.0000 -0.0000
vn -0.0000 -0.0000 -1.0000
vn -0.0000 -0.0000 1.0000
vn 0.9043 -0.0000 -0.4269
vn -0.9043 -0.0000 0.4269
vn -0.9043 -0.0000 -0.4269
vn -0.0000 -0.9885 -0.1514
vn -0.0000 -1.0000 -0.0000
vn -0.7071 -0.0000 0.7071
vn 0.7071 -0.0000 0.7071
vn 0.9043 -0.0000 0.4269
vn 0.5353 -0.0000 -0.8447
vn -0.5353 -0.0000 -0.8447
vn -0.0000 1.0000 -0.0000
vn -0.7071 -0.0000 -0.7071
vn -0.5353 -0.0000 0.8447
vn 0.5353 -0.0000 0.8447
vn 0.7071 -0.0000 -0.7071
vn -0.0000 -0.6797 -0.7335
vt 0.668878 0.733675
vt 0.831122 0.733676
vt 0.375000 0.125000
vt 0.125000 0.625000
vt 0.250000 0.500000
vt 0.375000 0.375000
vt 0.750000 0.740637
vt 0.650167 0.627099
vt 0.250000 0.750000
vt 0.375000 0.875000
vt 0.625000 0.125000
vt 0.875000 0.625000
vt 0.750000 0.519181
vt 0.375000 0.625000
vt 0.500000 0.375000
vt 0.500000 0.625000
vt 0.250000 0.625000
vt 0.500000 0.125000
vt 0.500000 0.875000
vt 0.687590 0.740637
vt 0.650167 0.726714
vt 0.375000 0.730593
vt 0.322835 0.750000
vt 0.375000 0.802165
vt 0.849832 0.726714
vt 0.812410 0.740637
vt 0.375000 0.000000
vt 0.375000 0.947835
vt 0.177165 0.750000
vt 0.125000 0.730593
vt 0.375000 0.019407
vt 0.500000 0.019407
vt 0.500000 0.947835
vt 0.500000 0.000000
vt 0.500000 0.730593
vt 0.500000 0.802165
vt 0.675738 0.530351
vt 0.718188 0.519181
vt 0.309701 0.500000
vt 0.375000 0.434701
vt 0.375000 0.517130
vt 0.781812 0.519181
vt 0.824262 0.530351
vt 0.125000 0.517130
vt 0.375000 0.232870
vt 0.190299 0.500000
vt 0.375000 0.315299
vt 0.500000 0.434701
vt 0.500000 0.517130
vt 0.500000 0.232870
vt 0.500000 0.315299
vt 0.650167 0.677796
vt 0.713583 0.740637
vt 0.849833 0.677796
vt 0.786418 0.740637
vt 0.695974 0.524766
vt 0.804026 0.524766
vt 0.659532 0.579253
vt 0.726826 0.519181
vt 0.773174 0.519181
vt 0.840468 0.579253
vt 0.625000 0.730593
vt 0.625000 0.677796
vt 0.625000 0.625000
vt 0.625000 0.571065
vt 0.625000 0.766379
vt 0.651082 0.740296
vt 0.625000 0.875000
vt 0.750000 0.750000
vt 0.625000 0.911418
vt 0.786418 0.750000
vt 0.625000 0.232870
vt 0.875000 0.517130
vt 0.625000 0.178935
vt 0.875000 0.571065
vt 0.625000 0.274085
vt 0.842350 0.508565
vt 0.625000 0.947835
vt 0.625000 0.000000
vt 0.822835 0.750000
vt 0.625000 0.009704
vt 0.848918 0.740296
vt 0.625000 0.434701
vt 0.690299 0.500000
vt 0.625000 0.475915
vt 0.657650 0.508565
vt 0.625000 0.375000
vt 0.750000 0.500000
vt 0.625000 0.345149
vt 0.779850 0.500000
vt 0.625000 0.019407
vt 0.875000 0.730593
vt 0.625000 0.072204
vt 0.875000 0.677796
vt 0.625000 0.404851
vt 0.720150 0.500000
vt 0.625000 0.838582
vt 0.713582 0.750000
vt 0.625000 0.802165
vt 0.677165 0.750000
vt 0.848055 0.629300
vt 0.625000 0.517130
vt 0.625000 0.315299
vt 0.809701 0.500000
vt 0.848055 0.629300
vt 0.812500 0.625000
vt 0.750000 0.519181
vt 0.750000 0.562500
vt 0.750000 0.625000
vt 0.687500 0.625000
vt 0.750000 0.687500
vt 0.750000 0.740637
vt 0.650167 0.627099
vt 0.650167 0.726714
vt 0.650167 0.677796
vt 0.659532 0.579253
vt 0.668878 0.733675
vt 0.786418 0.740637
vt 0.824262 0.530351
vt 0.840468 0.579253
vt 0.804026 0.524766
vt 0.812410 0.740637
vt 0.831122 0.733676
vt 0.718188 0.519181
vt 0.695974 0.524766
vt 0.773174 0.519181
vt 0.849832 0.726714
vt 0.849833 0.677796
vt 0.726826 0.519181
vt 0.713583 0.740637
vt 0.687590 0.740637
vt 0.675738 0.530351
vt 0.781812 0.519181
vt 0.375000 0.000000
vt 0.375000 1.000000
vt 0.125000 0.750000
vt 0.625000 0.000000
vt 0.625000 1.000000
vt 0.875000 0.750000
vt 0.125000 0.500000
vt 0.375000 0.250000
vt 0.625000 0.250000
vt 0.875000 0.500000
vt 0.375000 0.750000
vt 0.625000 0.750000
vt 0.375000 0.500000
vt 0.625000 0.500000
s 0
f 24/32/1 3/3/1 23/31/1
f 42/54/2 74/105/2 71/101/2
f 73/103/3 65/89/3 11/15/3
f 12/16/2 18/22/2 10/14/2
f 70/99/4 69/97/4 15/19/4
f 72/102/5 53/65/5 12/16/5
f 46/58/6 82/113/6 6/8/6
f 14/18/7 34/45/7 3/3/7
f 35/46/8 13/17/8 3/4/8
f 66/91/1 67/93/1 14/18/1
f 30/39/8 10/14/8 13/17/8
f 31/41/5 12/16/5 10/14/5
f 39/51/3 4/6/3 35/47/3
f 11/15/3 30/40/3 4/6/3
f 15/19/4 22/28/4 7/10/4
f 55/68/4 56/70/4 25/33/4
f 13/17/9 22/29/9 23/30/9
f 10/14/9 19/23/9 7/9/9
f 27/36/4 7/10/4 19/24/4
f 52/64/2 51/63/2 26/35/2
f 64/87/3 68/95/3 36/48/3
f 8/11/7 58/74/7 38/50/7
f 60/79/10 61/81/10 24/32/10
f 19/24/11 26/35/11 27/36/11
f 25/34/10 23/31/10 22/27/10
f 27/36/11 50/62/11 54/66/11
f 71/101/12 89/120/12 49/61/12
f 37/49/13 30/40/13 36/48/13
f 35/47/14 38/50/14 39/51/14
f 37/49/13 62/83/13 63/85/13
f 39/51/14 57/72/14 59/76/14
f 48/60/4 76/107/4 9/13/4
f 17/21/15 51/63/15 40/52/15
f 6/8/15 53/65/15 46/58/15
f 17/21/15 54/67/15 50/62/15
f 43/55/15 55/69/15 5/7/15
f 33/43/15 58/75/15 49/61/15
f 33/43/15 59/77/15 57/73/15
f 21/26/15 61/82/15 60/80/15
f 29/38/15 63/86/15 62/84/15
f 9/13/15 65/90/15 48/60/15
f 20/25/15 67/94/15 66/92/15
f 29/38/15 68/96/15 47/59/15
f 5/7/15 69/98/15 41/53/15
f 20/25/15 61/82/15 2/2/15
f 16/20/15 54/67/15 1/1/15
f 6/8/15 51/63/15 52/64/15
f 16/20/15 69/98/15 70/100/15
f 71/101/15 67/94/15 42/54/15
f 21/26/15 56/71/15 43/55/15
f 28/37/15 63/86/15 44/56/15
f 32/42/15 59/77/15 45/57/15
f 28/37/15 53/65/15 72/102/15
f 47/59/15 64/88/15 9/13/15
f 32/42/15 65/90/15 73/104/15
f 71/101/15 58/75/15 8/12/15
f 97/128/15 87/118/15 80/111/15
f 90/121/15 75/106/15 77/108/15
f 80/111/15 86/117/15 84/115/15
f 98/129/15 79/110/15 85/116/15
f 20/25/2 97/128/2 42/54/2
f 17/21/16 86/117/16 1/1/16
f 43/55/3 91/122/3 21/26/3
f 47/59/4 93/124/4 29/38/4
f 5/7/3 87/118/3 43/55/3
f 44/56/17 101/132/17 28/37/17
f 41/53/3 81/112/3 5/7/3
f 49/61/12 88/119/12 33/43/12
f 45/57/18 102/133/18 32/42/18
f 2/2/19 96/127/19 20/25/19
f 33/43/18 90/121/18 45/57/18
f 28/37/6 85/116/6 46/58/6
f 1/1/16 100/131/16 16/20/16
f 21/26/19 92/123/19 2/2/19
f 9/13/4 98/129/4 47/59/4
f 6/8/1 84/115/1 40/52/1
f 29/38/17 94/125/17 44/56/17
f 32/42/4 95/126/4 48/60/4
f 40/52/1 83/114/1 17/21/1
f 16/20/3 99/130/3 41/53/3
f 104/137/1 105/141/1 103/134/1
f 106/142/20 109/146/20 105/141/20
f 109/146/2 108/145/2 107/144/2
f 108/145/4 103/135/4 107/144/4
f 109/146/9 103/136/9 105/140/9
f 106/143/15 108/145/15 110/147/15
f 24/32/1 14/18/1 3/3/1
f 42/54/2 97/128/2 74/105/2
f 11/15/3 39/51/3 73/103/3
f 65/89/3 64/87/3 11/15/3
f 12/16/2 26/35/2 18/22/2
f 15/19/4 27/36/4 70/99/4
f 69/97/4 55/68/4 15/19/4
f 12/16/5 37/49/5 72/102/5
f 53/65/5 52/64/5 12/16/5
f 46/58/6 85/116/6 82/113/6
f 14/18/7 38/50/7 34/45/7
f 3/4/8 34/44/8 35/46/8
f 35/46/8 4/5/8 13/17/8
f 14/18/1 24/32/1 66/91/1
f 67/93/1 8/11/1 14/18/1
f 13/17/8 4/5/8 30/39/8
f 30/39/8 31/41/8 10/14/8
f 31/41/5 37/49/5 12/16/5
f 39/51/3 11/15/3 4/6/3
f 11/15/3 36/48/3 30/40/3
f 15/19/4 25/33/4 22/28/4
f 25/33/4 15/19/4 55/68/4
f 56/70/4 60/78/4 25/33/4
f 23/30/9 3/4/9 13/17/9
f 13/17/9 7/9/9 22/29/9
f 7/9/9 13/17/9 10/14/9
f 10/14/9 18/22/9 19/23/9
f 27/36/4 15/19/4 7/10/4
f 26/35/2 12/16/2 52/64/2
f 51/63/2 50/62/2 26/35/2
f 36/48/3 11/15/3 64/87/3
f 68/95/3 62/83/3 36/48/3
f 38/50/7 14/18/7 8/11/7
f 58/74/7 57/72/7 38/50/7
f 24/32/10 25/34/10 60/79/10
f 61/81/10 66/91/10 24/32/10
f 19/24/11 18/22/11 26/35/11
f 25/34/10 24/32/10 23/31/10
f 54/66/11 70/99/11 27/36/11
f 27/36/11 26/35/11 50/62/11
f 71/101/12 74/105/12 89/120/12
f 37/49/13 31/41/13 30/40/13
f 35/47/14 34/45/14 38/50/14
f 63/85/13 72/102/13 37/49/13
f 37/49/13 36/48/13 62/83/13
f 59/76/14 73/103/14 39/51/14
f 39/51/14 38/50/14 57/72/14
f 48/60/4 95/126/4 76/107/4
f 17/21/15 50/62/15 51/63/15
f 6/8/15 52/64/15 53/65/15
f 17/21/15 1/1/15 54/67/15
f 43/55/15 56/71/15 55/69/15
f 33/43/15 57/73/15 58/75/15
f 33/43/15 45/57/15 59/77/15
f 21/26/15 2/2/15 61/82/15
f 29/38/15 44/56/15 63/86/15
f 9/13/15 64/88/15 65/90/15
f 20/25/15 42/54/15 67/94/15
f 29/38/15 62/84/15 68/96/15
f 5/7/15 55/69/15 69/98/15
f 20/25/15 66/92/15 61/82/15
f 16/20/15 70/100/15 54/67/15
f 6/8/15 40/52/15 51/63/15
f 16/20/15 41/53/15 69/98/15
f 71/101/15 8/12/15 67/94/15
f 21/26/15 60/80/15 56/71/15
f 28/37/15 72/102/15 63/86/15
f 32/42/15 73/104/15 59/77/15
f 28/37/15 46/58/15 53/65/15
f 47/59/15 68/96/15 64/88/15
f 32/42/15 48/60/15 65/90/15
f 71/101/15 49/61/15 58/75/15
f 80/111/15 78/109/15 75/106/15
f 75/106/15 74/105/15 97/128/15
f 97/128/15 96/127/15 92/123/15
f 92/123/15 91/122/15 87/118/15
f 87/118/15 81/112/15 80/111/15
f 80/111/15 75/106/15 97/128/15
f 97/128/15 92/123/15 87/118/15
f 77/108/15 76/107/15 95/126/15
f 95/126/15 102/133/15 90/121/15
f 90/121/15 88/119/15 89/120/15
f 89/120/15 74/105/15 75/106/15
f 75/106/15 78/109/15 77/108/15
f 77/108/15 95/126/15 90/121/15
f 90/121/15 89/120/15 75/106/15
f 84/115/15 82/113/15 79/110/15
f 79/110/15 78/109/15 80/111/15
f 80/111/15 81/112/15 99/130/15
f 99/130/15 100/131/15 86/117/15
f 86/117/15 83/114/15 84/115/15
f 84/115/15 79/110/15 80/111/15
f 80/111/15 99/130/15 86/117/15
f 85/116/15 101/132/15 94/125/15
f 94/125/15 93/124/15 98/129/15
f 98/129/15 76/107/15 77/108/15
f 77/108/15 78/109/15 79/110/15
f 79/110/15 82/113/15 85/116/15
f 85/116/15 94/125/15 98/129/15
f 98/129/15 77/108/15 79/110/15
f 20/25/2 96/127/2 97/128/2
f 17/21/16 83/114/16 86/117/16
f 43/55/3 87/118/3 91/122/3
f 47/59/4 98/129/4 93/124/4
f 5/7/3 81/112/3 87/118/3
f 44/56/17 94/125/17 101/132/17
f 41/53/3 99/130/3 81/112/3
f 49/61/12 89/120/12 88/119/12
f 45/57/18 90/121/18 102/133/18
f 2/2/19 92/123/19 96/127/19
f 33/43/18 88/119/18 90/121/18
f 28/37/6 101/132/6 85/116/6
f 1/1/16 86/117/16 100/131/16
f 21/26/19 91/122/19 92/123/19
f 9/13/4 76/107/4 98/129/4
f 6/8/1 82/113/1 84/115/1
f 29/38/17 93/124/17 94/125/17
f 32/42/4 102/133/4 95/126/4
f 40/52/1 84/115/1 83/114/1
f 16/20/3 100/131/3 99/130/3
f 104/137/1 106/142/1 105/141/1
f 106/142/20 110/147/20 109/146/20
f 109/146/2 110/147/2 108/145/2
f 108/145/4 104/138/4 103/135/4
f 109/146/9 107/144/9 103/136/9
f 106/143/15 104/139/15 108/145/15
